<svg width="225" height="64" viewBox="0 0 225 64" fill="none" xmlns="http://www.w3.org/2000/svg">
<path d="M81.0331 0V15.1209L67.2529 29.2255L81.0331 15.1209V0Z" fill="#1DE9B6"/>
<path d="M48.1936 0L19.3027 29.2255H34.2527L53.4503 9.75332H57.8916L38.694 29.2255H52.2212L81.0338 0H48.1936Z" fill="#66769E"/>
<path d="M19.3027 29.2256L48.1936 58.4518H63.0687L34.2527 29.2256H19.3027Z" fill="#434D72"/>
<path d="M38.6934 29.2256L67.5094 58.4518H81.0332L52.2206 29.2256H38.6934Z" fill="#434D72"/>
<path d="M81.0333 0L52.2207 29.2255L81.0333 58.4517V43.3301L67.2531 29.2255L81.0333 15.1209V0Z" fill="#173045"/>
<path d="M28.8133 58.4518H43.8457L15.0324 29.2256H0L28.8133 58.4518Z" fill="#1DE9B6"/>
<path d="M28.8133 0H43.8457L15.0324 29.2255H0L28.8133 0Z" fill="#5FFFD1"/>
<path d="M119.576 18.1051C118.236 19.9364 116.091 20.9919 113.832 20.9314C109.606 20.9314 106.655 17.4736 106.655 12.523C106.655 7.4856 109.359 4.23047 113.544 4.23047C115.886 4.13316 118.094 5.32969 119.303 7.35099L119.487 7.67105L122.209 5.89426L122.027 5.60134C120.289 2.7909 117.266 1.24316 113.516 1.24316C107.336 1.24316 103.343 5.67071 103.343 12.523C103.343 19.339 107.547 23.9186 113.803 23.9186C117.319 23.9186 120.275 22.5333 122.126 20.0175L122.332 19.7373L119.783 17.8043L119.576 18.1051Z" fill="#F6F9FD"/>
<path d="M131.269 19.4811L126.698 7.45898H123.441L129.758 23.2803L127.471 29.2668H130.722L138.677 7.45898H135.459L131.269 19.4811Z" fill="#F6F9FD"/>
<path fill-rule="evenodd" clip-rule="evenodd" d="M148.934 23.9189C147.119 24.0137 145.37 23.2295 144.228 21.8096V23.6299H141.23V1.53223H144.228V9.18359C145.399 7.79492 147.156 7.04883 148.962 7.16992C153.288 7.16992 155.975 10.3623 155.975 15.501C155.975 20.6934 153.277 23.9189 148.934 23.9189ZM148.444 9.80957C145.587 9.80957 144.198 11.709 144.198 15.6162C144.198 19.4785 145.557 21.2773 148.474 21.2773C151.259 21.2773 152.921 19.1182 152.921 15.501C152.921 11.8838 151.289 9.80957 148.444 9.80957Z" fill="#F6F9FD"/>
<path fill-rule="evenodd" clip-rule="evenodd" d="M158.984 15.5879C158.984 10.3525 161.725 7.22754 166.313 7.22754C170.818 7.22754 173.298 10.002 173.298 15.0381V16.1992H162.049C162.194 19.4785 163.67 21.2783 166.228 21.2783C166.803 21.2783 167.556 21.2031 168.255 20.9014C169.179 20.5039 170.011 19.71 170.219 18.1709L170.26 17.8662H173.273L173.239 18.25C172.931 21.7285 170.246 23.9766 166.399 23.9766C161.618 23.9766 158.984 20.9971 158.984 15.5879ZM166.371 9.86816C163.992 9.86816 162.573 11.168 162.149 13.7324H170.224C170.024 11.3047 168.604 9.86816 166.371 9.86816Z" fill="#F6F9FD"/>
<path d="M180.363 14.4601C180.363 11.8018 181.811 10.2149 184.236 10.2149C184.543 10.2084 184.851 10.2432 185.149 10.3183L185.591 10.4395V7.29662L185.351 7.2166C185.089 7.1619 184.819 7.14616 184.552 7.1699C182.921 7.10127 181.359 7.83461 180.363 9.13625V7.45905H177.366V23.6294H180.363V14.4601Z" fill="#F6F9FD"/>
<path fill-rule="evenodd" clip-rule="evenodd" d="M114.483 48.5547C115.008 49.0889 115.491 49.6631 115.93 50.2705L116.147 50.5547L122.004 58.3213H117.994L113.035 51.6758C111 48.9541 111 48.9541 108.833 48.9541H107.373V58.3213H104.118V36.2236H112.711C116.843 36.2236 119.408 38.5967 119.408 42.415C119.495 45.4043 117.404 48.0098 114.483 48.5547ZM112.539 39.1533H107.373V46.0244H112.51C113.465 46.0918 114.402 45.7451 115.087 45.0723C115.772 44.3994 116.14 43.4648 116.096 42.502C116.096 40.4053 114.766 39.1533 112.539 39.1533Z" fill="#F6F9FD"/>
<path fill-rule="evenodd" clip-rule="evenodd" d="M122.966 50.2803C122.966 45.0449 125.706 41.9199 130.295 41.9199C134.8 41.9199 137.279 44.6943 137.279 49.7305V50.8916H126.03C126.176 54.1709 127.651 55.9707 130.209 55.9707C131.113 55.9707 132.458 55.7852 133.345 54.8232C133.766 54.3662 134.083 53.7344 134.2 52.8633L134.241 52.5586H137.255L137.221 52.9424C136.912 56.4209 134.228 58.6689 130.381 58.6689C125.6 58.6689 122.966 55.6895 122.966 50.2803ZM130.353 44.5596C127.974 44.5596 126.555 45.8594 126.131 48.4238H134.205C134.006 45.9961 132.586 44.5596 130.353 44.5596Z" fill="#F6F9FD"/>
<path fill-rule="evenodd" clip-rule="evenodd" d="M144.346 43.8751C145.518 42.4874 147.274 41.7403 149.08 41.8614C153.406 41.8614 156.093 45.0538 156.093 50.1924C156.093 55.3848 153.396 58.6104 149.052 58.6104C147.237 58.7051 145.488 57.9209 144.346 56.501V63.959H141.349V42.1504H144.346V43.8751ZM148.592 55.9688C151.377 55.9688 153.039 53.8096 153.039 50.1924C153.039 46.5752 151.408 44.501 148.562 44.501C145.705 44.501 144.316 46.4004 144.316 50.3077C144.316 54.17 145.675 55.9688 148.592 55.9688Z" fill="#F6F9FD"/>
<path d="M169.684 51.4931C169.684 54.183 168.145 55.8541 165.667 55.8541C163.671 55.8541 162.857 54.7328 162.857 51.9845V42.1504H159.86V52.6205C159.86 56.6508 161.572 58.6099 165.093 58.6099C166.87 58.6919 168.579 57.9082 169.684 56.5038V58.3207H172.681V42.1504H169.684L169.684 51.4931Z" fill="#F6F9FD"/>
<path fill-rule="evenodd" clip-rule="evenodd" d="M180.329 43.875C181.501 42.4863 183.258 41.7402 185.063 41.8613C189.39 41.8613 192.076 45.0537 192.076 50.1924C192.076 55.3848 189.379 58.6104 185.035 58.6104C183.221 58.7051 181.472 57.9209 180.329 56.501V58.3213H177.332V36.2236H180.329V43.875ZM184.575 55.9697C187.36 55.9697 189.022 53.8105 189.022 50.1934C189.022 46.5762 187.392 44.502 184.546 44.502C181.688 44.502 180.3 46.4014 180.3 50.3086C180.3 54.1709 181.658 55.9697 184.575 55.9697Z" fill="#F6F9FD"/>
<rect x="195.924" y="36.2236" width="2.99667" height="22.0972" fill="#F6F9FD"/>
<path d="M205.048 35.7326C204.242 35.7209 203.508 36.2006 203.192 36.9469C202.875 37.6931 203.038 38.5579 203.604 39.1358C204.17 39.7137 205.027 39.8901 205.773 39.5824C206.519 39.2746 207.006 38.5437 207.006 37.7323C207.015 37.2041 206.813 36.6943 206.445 36.318C206.076 35.9417 205.573 35.7307 205.048 35.7326Z" fill="#F6F9FD"/>
<rect x="203.55" y="42.1504" width="2.99667" height="16.1703" fill="#F6F9FD"/>
<path d="M221.572 52.1824L221.543 52.5021C221.338 54.7645 220.054 55.9118 217.726 55.9118C214.895 55.9118 213.336 53.8909 213.336 50.2212C213.336 46.5701 214.895 44.5595 217.726 44.5595C219.323 44.5595 221.283 45.156 221.543 47.9984L221.572 48.3177H224.618L224.594 47.9437C224.354 44.135 221.808 41.8613 217.783 41.8613C213.085 41.8613 210.281 44.9973 210.281 50.2501C210.281 55.4846 213.085 58.61 217.783 58.61C221.807 58.61 224.354 56.3469 224.594 52.5564L224.618 52.1824L221.572 52.1824Z" fill="#F6F9FD"/>
</svg>
