<svg width="177" height="162" viewBox="0 0 177 162" fill="none" xmlns="http://www.w3.org/2000/svg">
<path fill-rule="evenodd" clip-rule="evenodd" d="M0 154H10V75H0V154Z" fill="#173045"/>
<path fill-rule="evenodd" clip-rule="evenodd" d="M10 154H161V75H10V154Z" fill="#434D72"/>
<path fill-rule="evenodd" clip-rule="evenodd" d="M116.529 88.5106H18.3025C17.1727 88.5106 16.248 87.5859 16.248 86.455C16.248 85.3241 17.1727 84.3994 18.3025 84.3994H116.529C117.659 84.3994 118.583 85.3241 118.583 86.455C118.583 87.5859 117.659 88.5106 116.529 88.5106Z" fill="#173045"/>
<path fill-rule="evenodd" clip-rule="evenodd" d="M125.616 86.455C125.616 87.2443 124.977 87.8837 124.189 87.8837C123.401 87.8837 122.762 87.2443 122.762 86.455C122.762 85.6658 123.401 85.0264 124.189 85.0264C124.977 85.0264 125.616 85.6658 125.616 86.455Z" fill="#173045"/>
<path fill-rule="evenodd" clip-rule="evenodd" d="M130.478 86.455C130.478 87.2443 129.839 87.8837 129.05 87.8837C128.262 87.8837 127.623 87.2443 127.623 86.455C127.623 85.6658 128.262 85.0264 129.05 85.0264C129.839 85.0264 130.478 85.6658 130.478 86.455Z" fill="#173045"/>
<path fill-rule="evenodd" clip-rule="evenodd" d="M135.337 86.455C135.337 87.2443 134.698 87.8837 133.91 87.8837C133.121 87.8837 132.482 87.2443 132.482 86.455C132.482 85.6658 133.121 85.0264 133.91 85.0264C134.698 85.0264 135.337 85.6658 135.337 86.455Z" fill="#173045"/>
<path fill-rule="evenodd" clip-rule="evenodd" d="M80.5705 50.1292H62.9489C60.6158 50.1292 58.7173 48.245 58.6993 45.9087L58.6017 33.7439C58.5838 31.3816 60.4913 29.4561 62.8521 29.4561H80.4737C82.8077 29.4561 84.7044 31.3403 84.7232 33.6757L84.82 45.8414C84.8397 48.2046 82.9313 50.1292 80.5705 50.1292Z" stroke="#1DE9B6" stroke-width="0.739376"/>
<path d="M58.6025 34.1133H84.7339" stroke="#1DE9B6" stroke-width="0.739376"/>
<path d="M71.7119 50.1289V52.371" stroke="#1DE9B6" stroke-width="0.739376"/>
<path d="M71.7119 56.7627V63.3509" stroke="#1DE9B6" stroke-width="0.739376" stroke-dasharray="2.9 2.9"/>
<path d="M71.7119 65.5469V67.789" stroke="#1DE9B6" stroke-width="0.739376"/>
<path fill-rule="evenodd" clip-rule="evenodd" d="M34.4298 38.4798H16.8091C14.4752 38.4798 12.5775 36.5946 12.5587 34.2593L12.4611 22.0945C12.4431 19.7322 14.3515 17.8066 16.7124 17.8066H34.3331C36.667 17.8066 38.5638 19.6909 38.5835 22.0263L38.6803 34.1911C38.6991 36.5543 36.7907 38.4798 34.4298 38.4798Z" stroke="#1DE9B6" stroke-width="0.739376"/>
<path d="M12.4619 22.4629H38.5933" stroke="#1DE9B6" stroke-width="0.739376"/>
<path d="M25.5713 38.4795V40.7216" stroke="#1DE9B6" stroke-width="0.739376"/>
<path d="M25.5713 45.6865V63.0647" stroke="#1DE9B6" stroke-width="0.739376" stroke-dasharray="3.27 3.27"/>
<path d="M25.5713 65.5469V67.789" stroke="#1DE9B6" stroke-width="0.739376"/>
<path fill-rule="evenodd" clip-rule="evenodd" d="M126.711 21.6732H109.089C106.756 21.6732 104.858 19.7889 104.84 17.4535L104.742 5.28782C104.724 2.92553 106.632 1 108.993 1H126.614C128.947 1 130.845 2.88427 130.864 5.22055L130.961 17.3854C130.979 19.7485 129.071 21.6732 126.711 21.6732Z" stroke="#1DE9B6" stroke-width="0.739376"/>
<path d="M104.743 5.65625H130.874" stroke="#1DE9B6" stroke-width="0.739376"/>
<path d="M117.853 21.6729V23.915" stroke="#1DE9B6" stroke-width="0.739376"/>
<path d="M117.853 28.541V63.2337" stroke="#1DE9B6" stroke-width="0.739376" stroke-dasharray="3.05 3.05"/>
<path d="M117.853 65.5469V67.789" stroke="#1DE9B6" stroke-width="0.739376"/>
<path fill-rule="evenodd" clip-rule="evenodd" d="M176 129.5C176 146.897 161.897 161 144.5 161C127.103 161 113 146.897 113 129.5C113 112.103 127.103 98 144.5 98C161.897 98 176 112.103 176 129.5Z" stroke="#1DE9B6" stroke-width="0.984375"/>
<ellipse cx="144.501" cy="129.5" rx="26.775" ry="26.775" fill="#173045"/>
<path d="M170.882 129.5C170.882 144.07 159.071 155.881 144.501 155.881C129.931 155.881 118.119 144.07 118.119 129.5C118.119 114.93 129.931 103.118 144.501 103.118C159.071 103.118 170.882 114.93 170.882 129.5Z" stroke="#1DE9B6" stroke-width="0.7875"/>
<path d="M169.967 103.862L167.072 106.776" stroke="#1DE9B6" stroke-width="0.984375"/>
<path d="M121.926 152.22L119.031 155.134" stroke="#1DE9B6" stroke-width="0.984375"/>
<path d="M119.03 103.862L121.925 106.776" stroke="#1DE9B6" stroke-width="0.984375"/>
<path d="M167.072 152.22L169.967 155.134" stroke="#1DE9B6" stroke-width="0.984375"/>
<path d="M131.192 134.445L142.564 139.752L157.887 121.624" stroke="#1DE9B6" stroke-width="1.575"/>
<path d="M25.728 117C25.843 117 25.935 116.954 25.912 116.816L23.888 110.077C25.268 109.939 25.682 109.134 25.682 107.846V103.131C25.682 101.728 25.061 100.9 23.359 100.9H19.219C19.104 100.9 19.035 100.969 19.035 101.084V116.816C19.035 116.885 19.081 117 19.219 117H21.289C21.404 117 21.473 116.954 21.473 116.816V110.468L23.244 116.816C23.244 116.885 23.29 117 23.428 117H25.728ZM23.129 103.223C23.221 103.223 23.244 103.246 23.244 103.338V107.662C23.244 107.754 23.221 107.777 23.129 107.777H21.473V103.223H23.129ZM32.0097 117C32.1017 117 32.1937 116.954 32.1937 116.816V114.838C32.1937 114.746 32.1017 114.677 32.0097 114.677H29.9857V109.985H32.0097C32.1017 109.985 32.1937 109.939 32.1937 109.801V107.846C32.1937 107.731 32.1017 107.662 32.0097 107.662H29.9857V103.2H32.0097C32.1017 103.2 32.1937 103.154 32.1937 103.039V101.084C32.1937 100.969 32.1017 100.9 32.0097 100.9H27.7317C27.6167 100.9 27.5477 100.969 27.5477 101.084V116.816C27.5477 116.885 27.5937 117 27.7317 117H32.0097ZM40.28 108.536H37.244C37.129 108.536 37.06 108.605 37.06 108.697V110.652C37.06 110.721 37.106 110.836 37.244 110.836H38.026V114.677C38.026 114.769 38.003 114.792 37.911 114.792H36.025C35.933 114.792 35.91 114.769 35.91 114.677V103.223C35.91 103.131 35.933 103.108 36.025 103.108H37.911C38.003 103.108 38.026 103.131 38.026 103.223V105.155C38.026 105.27 38.118 105.316 38.21 105.316H40.28C40.395 105.316 40.464 105.27 40.464 105.155V103.016C40.464 101.613 39.843 100.785 38.141 100.785H35.795C34.093 100.785 33.472 101.613 33.472 103.039V114.907C33.472 116.287 34.001 117.115 35.841 117.115H38.164C39.958 117.115 40.464 116.287 40.464 114.861V108.697C40.464 108.582 40.395 108.536 40.28 108.536ZM44.4462 117C44.5612 117 44.6302 116.954 44.6302 116.816V101.084C44.6302 100.969 44.5612 100.9 44.4462 100.9H42.3762C42.2612 100.9 42.1922 100.969 42.1922 101.084V116.816C42.1922 116.885 42.2382 117 42.3762 117H44.4462ZM46.3619 107.892C46.3619 109.778 47.0289 110.1 48.6849 110.1H50.8009C50.8929 110.1 50.9159 110.123 50.9159 110.215V114.677C50.9159 114.769 50.8929 114.792 50.8009 114.792H48.9149C48.8229 114.792 48.7999 114.769 48.7999 114.677V112.538C48.7999 112.423 48.7079 112.377 48.6159 112.377H46.5459C46.4309 112.377 46.3619 112.423 46.3619 112.538V114.907C46.3619 116.287 46.8909 117.115 48.7309 117.115H51.0539C52.8479 117.115 53.3539 116.287 53.3539 114.861V109.985C53.3539 108.605 52.8479 107.777 51.0309 107.777H48.9149C48.8229 107.777 48.7999 107.754 48.7999 107.662V103.223C48.7999 103.131 48.8229 103.108 48.9149 103.108H50.8009C50.8929 103.108 50.9159 103.131 50.9159 103.223V105.155C50.9159 105.27 51.0079 105.316 51.0999 105.316H53.1699C53.2849 105.316 53.3539 105.27 53.3539 105.155V103.016C53.3539 101.613 52.7329 100.785 51.0309 100.785H48.6849C46.9829 100.785 46.3619 101.613 46.3619 103.039V107.892ZM59.9662 103.2C60.0582 103.2 60.1502 103.154 60.1502 103.039V101.084C60.1502 100.969 60.0582 100.9 59.9662 100.9H54.0092C53.8942 100.9 53.8252 100.969 53.8252 101.084V103.039C53.8252 103.108 53.8712 103.2 54.0092 103.2H55.7572V116.816C55.7572 116.885 55.8262 117 55.9412 117H58.0342C58.1262 117 58.1952 116.954 58.1952 116.816V103.2H59.9662ZM67.8872 117C68.0022 117 68.0942 116.954 68.0712 116.816L66.0472 110.077C67.4272 109.939 67.8412 109.134 67.8412 107.846V103.131C67.8412 101.728 67.2202 100.9 65.5182 100.9H61.3782C61.2632 100.9 61.1942 100.969 61.1942 101.084V116.816C61.1942 116.885 61.2402 117 61.3782 117H63.4482C63.5632 117 63.6322 116.954 63.6322 116.816V110.468L65.4032 116.816C65.4032 116.885 65.4492 117 65.5872 117H67.8872ZM65.2882 103.223C65.3802 103.223 65.4032 103.246 65.4032 103.338V107.662C65.4032 107.754 65.3802 107.777 65.2882 107.777H63.6322V103.223H65.2882ZM71.3683 100.9C71.2303 100.9 71.1843 101.015 71.1843 101.084L68.4473 116.816C68.4473 116.931 68.5163 117 68.6313 117H70.7933C70.9083 117 70.9773 116.931 70.9773 116.816L71.5523 112.975H73.4613L73.9903 116.816C73.9903 116.931 74.0823 117 74.1743 117H76.3363C76.4513 117 76.5203 116.931 76.5203 116.816L73.9213 101.084C73.9213 101.015 73.8753 100.9 73.7373 100.9H71.3683ZM72.5643 106.236L73.1623 110.675H71.8973L72.5643 106.236ZM81.9555 103.2C82.0475 103.2 82.1395 103.154 82.1395 103.039V101.084C82.1395 100.969 82.0475 100.9 81.9555 100.9H75.9985C75.8835 100.9 75.8145 100.969 75.8145 101.084V103.039C75.8145 103.108 75.8605 103.2 75.9985 103.2H77.7465V116.816C77.7465 116.885 77.8155 117 77.9305 117H80.0235C80.1155 117 80.1845 116.954 80.1845 116.816V103.2H81.9555ZM85.4374 117C85.5524 117 85.6214 116.954 85.6214 116.816V101.084C85.6214 100.969 85.5524 100.9 85.4374 100.9H83.3674C83.2524 100.9 83.1834 100.969 83.1834 101.084V116.816C83.1834 116.885 83.2294 117 83.3674 117H85.4374ZM89.8371 117.115H92.1601C93.9541 117.115 94.4601 116.287 94.4601 114.861V103.016C94.4601 101.613 93.8391 100.785 92.1371 100.785H89.7911C88.0891 100.785 87.4681 101.613 87.4681 103.039V114.907C87.4681 116.287 87.9971 117.115 89.8371 117.115ZM92.0221 103.223V114.677C92.0221 114.769 91.9991 114.792 91.9071 114.792H90.0211C89.9291 114.792 89.9061 114.769 89.9061 114.677V103.223C89.9061 103.131 89.9291 103.108 90.0211 103.108H91.9071C91.9991 103.108 92.0221 103.131 92.0221 103.223ZM103.109 117C103.201 117 103.293 116.954 103.293 116.816V101.084C103.293 100.969 103.201 100.9 103.109 100.9H101.085C100.97 100.9 100.901 100.969 100.901 101.084V108.743L98.7386 101.084C98.7386 100.969 98.6696 100.9 98.5546 100.9H96.4846C96.3696 100.9 96.3006 100.969 96.3006 101.084V116.816C96.3006 116.885 96.3466 117 96.4846 117H98.5086C98.6236 117 98.6926 116.954 98.6926 116.816V109.157L100.855 116.816C100.855 116.885 100.901 117 101.039 117H103.109ZM23.359 126.223V128.155C23.359 128.27 23.451 128.316 23.543 128.316H25.613C25.728 128.316 25.797 128.27 25.797 128.155V126.016C25.797 124.613 25.176 123.785 23.474 123.785H21.128C19.426 123.785 18.805 124.613 18.805 126.039V137.907C18.805 139.287 19.334 140.115 21.174 140.115H23.497C25.291 140.115 25.797 139.287 25.797 137.861V135.538C25.797 135.423 25.728 135.377 25.613 135.377H23.543C23.451 135.377 23.359 135.423 23.359 135.538V137.677C23.359 137.769 23.336 137.792 23.244 137.792H21.358C21.266 137.792 21.243 137.769 21.243 137.677V126.223C21.243 126.131 21.266 126.108 21.358 126.108H23.244C23.336 126.108 23.359 126.131 23.359 126.223ZM29.5519 140.115H31.8749C33.6689 140.115 34.1749 139.287 34.1749 137.861V126.016C34.1749 124.613 33.5539 123.785 31.8519 123.785H29.5059C27.8039 123.785 27.1829 124.613 27.1829 126.039V137.907C27.1829 139.287 27.7119 140.115 29.5519 140.115ZM31.7369 126.223V137.677C31.7369 137.769 31.7139 137.792 31.6219 137.792H29.7359C29.6439 137.792 29.6209 137.769 29.6209 137.677V126.223C29.6209 126.131 29.6439 126.108 29.7359 126.108H31.6219C31.7139 126.108 31.7369 126.131 31.7369 126.223ZM43.3295 139.816C43.3295 139.954 43.4215 140 43.5135 140H45.5375C45.6755 140 45.7215 139.885 45.7215 139.816V124.084C45.7215 123.969 45.6525 123.9 45.5375 123.9H43.6055C43.3295 123.9 43.3065 124.084 43.2605 124.222L40.8685 132.41L38.4765 124.222C38.4305 124.084 38.4075 123.9 38.1545 123.9H36.1995C36.0845 123.9 36.0155 123.969 36.0155 124.084V139.816C36.0155 139.885 36.0615 140 36.1995 140H38.2235C38.3385 140 38.4075 139.954 38.4075 139.816V131.973L39.7185 136.366C39.7875 136.527 39.8335 136.711 40.0175 136.734H41.7195C41.9035 136.711 41.9725 136.527 42.0185 136.366L43.3295 131.904V139.816ZM50.039 140C50.154 140 50.223 139.954 50.223 139.816V132.985H52.132C53.926 132.985 54.432 132.042 54.432 130.616V126.131C54.432 124.728 53.811 123.9 52.109 123.9H47.969C47.854 123.9 47.785 123.969 47.785 124.084V139.816C47.785 139.885 47.831 140 47.969 140H50.039ZM51.879 126.223C51.971 126.223 51.994 126.246 51.994 126.338V130.547C51.994 130.639 51.971 130.662 51.879 130.662H50.223V126.223H51.879ZM60.4496 140C60.5646 140 60.6336 139.954 60.6336 139.816V137.861C60.6336 137.769 60.5646 137.677 60.4496 137.677H58.2416V124.084C58.2416 123.969 58.1726 123.9 58.0576 123.9H55.9876C55.8726 123.9 55.8036 123.969 55.8036 124.084V139.816C55.8036 139.885 55.8496 140 55.9876 140H60.4496ZM66.1279 140C66.2199 140 66.3119 139.954 66.3119 139.816V137.838C66.3119 137.746 66.2199 137.677 66.1279 137.677H64.1039V132.985H66.1279C66.2199 132.985 66.3119 132.939 66.3119 132.801V130.846C66.3119 130.731 66.2199 130.662 66.1279 130.662H64.1039V126.2H66.1279C66.2199 126.2 66.3119 126.154 66.3119 126.039V124.084C66.3119 123.969 66.2199 123.9 66.1279 123.9H61.8499C61.7349 123.9 61.6659 123.969 61.6659 124.084V139.816C61.6659 139.885 61.7119 140 61.8499 140H66.1279ZM73.0385 126.2C73.1305 126.2 73.2225 126.154 73.2225 126.039V124.084C73.2225 123.969 73.1305 123.9 73.0385 123.9H67.0815C66.9665 123.9 66.8975 123.969 66.8975 124.084V126.039C66.8975 126.108 66.9435 126.2 67.0815 126.2H68.8295V139.816C68.8295 139.885 68.8985 140 69.0135 140H71.1065C71.1985 140 71.2675 139.954 71.2675 139.816V126.2H73.0385ZM78.7284 140C78.8204 140 78.9124 139.954 78.9124 139.816V137.838C78.9124 137.746 78.8204 137.677 78.7284 137.677H76.7044V132.985H78.7284C78.8204 132.985 78.9124 132.939 78.9124 132.801V130.846C78.9124 130.731 78.8204 130.662 78.7284 130.662H76.7044V126.2H78.7284C78.8204 126.2 78.9124 126.154 78.9124 126.039V124.084C78.9124 123.969 78.8204 123.9 78.7284 123.9H74.4504C74.3354 123.9 74.2664 123.969 74.2664 124.084V139.816C74.2664 139.885 74.3124 140 74.4504 140H78.7284Z" fill="white"/>
</svg>
